<svg xmlns="http://www.w3.org/2000/svg" width="114" height="40" viewBox="0 0 114 40" fill="none">
  <g clip-path="url(#clip0_64_1291)">
    <path d="M93.0811 0C88.565 0 84.3714 1.48387 80.9521 4.00002C77.5327 1.48387 73.3392 0 68.8231 0C64.3069 0 60.1134 1.48387 56.694 4.00002C53.2747 1.48387 49.1456 0 44.565 0C40.0488 0 35.8553 1.48387 32.4359 4.00002C29.0811 1.48387 24.8875 0 20.3069 0C9.1456 0 0.0488281 8.96775 0.0488281 20C0.0488281 31.0323 9.1456 40 20.3069 40C24.823 40 29.0166 38.5161 32.4359 36C35.8553 38.5161 40.0488 40 44.565 40C49.0811 40 53.2747 38.5161 56.694 36C60.0489 38.5161 64.2424 40 68.8231 40C73.3392 40 77.5327 38.5161 80.9521 36C84.3069 38.5161 88.5005 40 93.0811 40C104.242 40 113.339 31.0323 113.339 20C113.339 8.96775 104.242 0 93.0811 0ZM80.9521 30.3226C78.5005 27.5484 77.0166 23.9355 77.0166 20C77.0166 16.0645 78.5005 12.4516 80.9521 9.67743C83.4037 12.4516 84.8876 16.0645 84.8876 20C84.8876 23.9355 83.4037 27.5484 80.9521 30.3226ZM56.694 30.3226C54.2424 27.5484 52.7585 23.9355 52.7585 20C52.7585 16.0645 54.2424 12.4516 56.694 9.67743C59.1456 12.4516 60.6295 16.0645 60.6295 20C60.6295 23.9355 59.1456 27.5484 56.694 30.3226ZM32.4359 30.3226C29.9843 27.5484 28.5004 23.9355 28.5004 20C28.5004 16.0645 29.9843 12.4516 32.4359 9.67743C34.8876 12.4516 36.3714 16.0645 36.3714 20C36.436 23.9355 34.8876 27.5484 32.4359 30.3226ZM4.24237 20C4.24237 11.2903 11.4682 4.19355 20.3069 4.19355C23.5972 4.19355 26.694 5.1613 29.2746 6.90323C26.1779 10.3871 24.3069 14.9677 24.3069 20C24.3069 25.0323 26.1779 29.6129 29.2746 33.0968C26.694 34.7742 23.6617 35.8065 20.3069 35.8065C11.4682 35.8065 4.24237 28.7097 4.24237 20ZM35.5972 33.0968C38.694 29.6129 40.565 25.0323 40.565 20C40.565 14.9677 38.694 10.3871 35.5972 6.90323C38.1779 5.2258 41.2101 4.19355 44.565 4.19355C47.9198 4.19355 50.9521 5.1613 53.5327 6.90323C50.4359 10.3871 48.5004 14.9677 48.5004 20C48.5004 25.0323 50.3714 29.6129 53.5327 33.0968C50.9521 34.7742 47.9198 35.8065 44.565 35.8065C41.2746 35.8065 38.1779 34.7742 35.5972 33.0968ZM59.8553 33.0968C62.9521 29.6129 64.8876 25.0323 64.8876 20C64.8876 14.9677 63.0166 10.3871 59.8553 6.90323C62.4359 5.2258 65.4682 4.19355 68.8231 4.19355C72.1779 4.19355 75.2101 5.1613 77.7908 6.90323C74.694 10.3871 72.7585 14.9677 72.7585 20C72.7585 25.0323 74.6295 29.6129 77.7908 33.0968C75.2101 34.7742 72.1779 35.8065 68.8231 35.8065C65.4682 35.8065 62.4359 34.7742 59.8553 33.0968ZM93.0811 35.8065C89.7908 35.8065 86.694 34.8387 84.1134 33.0968C87.2101 29.6129 89.1456 25.0323 89.1456 20C89.1456 14.9677 87.2747 10.3871 84.1134 6.90323C86.694 5.2258 89.7263 4.19355 93.0811 4.19355C101.92 4.19355 109.146 11.2903 109.146 20C109.146 28.7097 101.92 35.8065 93.0811 35.8065Z" fill="black"/>
  </g>
  <defs>
    <clipPath id="clip0_64_1291">
      <rect width="113.29" height="40" fill="white" transform="translate(0.0488281)"/>
    </clipPath>
  </defs>
</svg>