<svg xmlns="http://www.w3.org/2000/svg" width="97" height="30" viewBox="0 0 97 30" fill="none">
  <g clip-path="url(#clip0_64_1275)">
    <path d="M67.8939 2.30359C67.8939 2.30359 66.1011 3.01729 64.016 5.31541C61.9309 7.61353 60.7165 10.1978 61.6153 10.885C61.9605 11.1462 62.7566 11.196 64.201 9.88989C65.5341 8.73247 66.5805 7.28156 67.258 5.65127C68.1909 3.37647 67.8939 2.33158 67.8939 2.3067M79.3052 6.43804C76.9884 5.25011 75.2952 3.79473 73.5335 2.89445C71.8526 2.03149 70.7658 1.67075 69.4068 1.85268C69.2172 1.88647 69.0302 1.93323 68.8471 1.99262C68.8471 1.99262 69.5468 4.38248 66.7619 8.3972C63.9414 12.4679 61.382 12.4399 60.6544 11.3219C59.8925 10.1418 60.8767 7.73637 62.5202 5.59529C64.2415 3.35625 67.2642 1.49972 67.2642 1.49972C67.2642 1.49972 66.3001 0.910415 63.9336 2.25228C61.6246 3.55528 57.6503 6.66505 53.9621 11.9097C50.2739 17.1543 49.5431 20.0402 49.0145 22.3119C48.4858 24.5836 48.9663 27.017 51.4852 27.017C54.0041 27.017 56.9366 23.1748 57.7638 21.8392C59.3016 19.3514 60.3045 15.5357 58.2116 16.0597C57.1807 16.3178 56.3458 17.4591 55.8186 18.5584C55.4859 19.2645 55.2314 20.0049 55.0599 20.7663C54.3285 21.0677 53.6417 21.4674 53.0183 21.9543C52.3248 22.468 51.6766 23.0402 51.0809 23.6646C51.0809 23.6646 51.0902 21.8485 52.5378 18.9098C53.9854 15.9711 56.6427 14.6292 58.1479 14.5032C59.5037 14.3944 61.2685 15.545 59.7727 19.7899C58.2769 24.0347 53.8642 29.1954 49.229 29.2591C44.9515 29.3182 42.1527 23.859 48.1064 14.3322C54.696 3.80717 62.4254 0.577669 64.935 0.21849C67.4445 -0.140689 68.2609 0.966391 68.2609 0.966391C69.7715 0.346621 71.4031 0.0776134 73.0328 0.179618C76.0975 0.386418 78.4671 2.55549 81.5956 4.07928C80.7824 4.85672 80.0065 5.67304 79.3068 6.43804M93.0738 2.89445C90.9498 4.25653 88.011 5.49111 85.1874 5.22678C84.4721 5.96535 83.7071 6.82054 82.9406 7.75348C87.8369 8.72217 92.1268 5.68858 94.4079 3.10592C95.2394 2.17735 95.9538 1.15018 96.5349 0.0474524C95.4965 1.1291 94.3342 2.08469 93.0722 2.89445M86.5526 16.6894C86.5897 16.6248 86.6199 16.5566 86.6427 16.4857C86.6282 16.3736 86.5757 16.2698 86.4939 16.1917C86.4121 16.1137 86.3061 16.0659 86.1934 16.0566C85.7269 16.0348 85.091 16.1234 83.4226 17.9706C82.0385 19.4961 80.8473 21.186 79.8759 23.0023C78.9212 24.7468 78.534 26.0467 79.0829 26.3826C79.2612 26.475 79.468 26.4961 79.6613 26.4417C80.0329 26.353 80.4543 26.0047 81.0949 25.2631C81.395 24.9148 81.7277 24.4219 82.1258 23.8761C83.2298 22.3741 86.0037 17.6457 86.5526 16.6894ZM69.2218 18.6983C69.5001 17.9706 69.8546 16.5417 69.1176 15.9804C68.3262 15.3849 66.3079 16.7827 66.297 18.2163C66.283 19.6841 67.7182 20.3481 68.0618 20.4414C68.2577 20.4942 68.3262 20.4865 68.421 20.3294C68.7254 19.8049 68.993 19.2599 69.2218 18.6983ZM67.6949 21.3681C67.1947 21.1371 66.7282 20.8395 66.3079 20.4833C65.8865 20.1298 65.5343 19.7012 65.2693 19.2192C65.2413 19.1726 65.2133 19.2083 65.1822 19.2503C65.1511 19.2923 65.0267 19.4058 63.9507 20.9825C62.8747 22.5591 61.2219 25.8259 62.7177 26.3826C63.6755 26.7387 65.2693 25.0609 66.1384 23.9492C66.7306 23.1732 67.2674 22.3564 67.7446 21.5049C67.7897 21.4101 67.7446 21.3883 67.6964 21.3681M84.6634 25.1418C84.2575 25.7917 83.7942 27.0387 85.1298 26.2629C86.764 25.319 89.0917 21.7879 89.0917 21.7879H90.1475C89.1868 23.265 88.1172 24.6683 86.9475 25.9861C85.2915 27.8209 83.2718 29.4877 81.849 29.3229C80.1869 29.1285 80.7077 26.947 80.7077 26.947C80.7077 26.947 78.3303 29.4784 76.6852 29.2964C74.4633 29.0508 75.1412 26.3048 75.1412 26.3048C75.1412 26.3048 72.6285 29.3882 70.9166 29.2933C68.2329 29.1378 68.9077 25.8726 69.654 23.5729C70.0536 22.343 70.4237 21.3774 70.4237 21.3774C70.4237 21.3774 70.1578 21.4474 69.5856 21.5329C69.2871 21.5749 68.7429 21.606 68.7429 21.606C68.7429 21.606 67.6249 23.5776 66.7309 24.7624C65.8368 25.9472 62.0366 30.0319 59.8007 29.214C57.7327 28.4584 58.4169 25.2926 59.6203 22.7768C61.3774 19.1088 66.3188 13.8393 69.1689 14.5359C72.1232 15.2527 69.2358 20.6435 69.2358 20.6435C69.2358 20.6435 69.2358 20.6637 69.2669 20.6777C69.326 20.6995 69.4799 20.7166 69.836 20.6466C70.2049 20.5713 70.5666 20.4636 70.9166 20.3247C70.9166 20.3247 73.8864 14.1052 77.1673 10.036C80.4481 5.96691 86.9926 -1.04097 89.5613 0.653858C90.1832 1.07057 89.9033 2.50573 89.0575 4.2472C88.6765 4.37096 88.2893 4.47476 87.8975 4.55818C88.4635 3.5304 88.8382 2.66433 88.9502 2.05948C89.3374 -0.0427312 84.4286 4.39181 80.9208 9.15598C78.8078 12.0281 76.9307 15.0664 75.3076 18.2412C75.9413 17.8547 76.5462 17.4229 77.1175 16.9491C78.6822 15.6517 80.1691 14.2634 81.5707 12.7913C82.9203 11.4096 84.1862 9.94853 85.3615 8.41586C85.7349 8.3978 86.1071 8.35939 86.4764 8.3008C85.1949 10.0401 83.7975 11.691 82.2937 13.2422C80.8943 14.6572 79.3799 16.1794 78.0644 17.2849C76.8895 18.2841 75.6501 19.205 74.3545 20.0417C74.3545 20.0417 71.2867 26.2286 72.9551 26.6251C73.9362 26.8615 75.8736 23.8777 75.8736 23.8777C75.8736 23.8777 78.4018 20.02 79.9256 18.2801C82.0045 15.9166 83.7942 14.5483 85.5823 14.5235C86.6241 14.5048 87.2383 15.6119 87.2383 15.6119L87.7281 14.8531H90.7445C90.7445 14.8531 85.1112 24.4125 84.6603 25.1325M93.0722 2.89445C90.9482 4.25653 88.0095 5.49111 85.1858 5.22678C84.4706 5.96535 83.7056 6.82054 82.939 7.75348C87.8353 8.72217 92.1253 5.68858 94.4063 3.10592C95.2384 2.17744 95.9533 1.15026 96.5349 0.0474524C95.4965 1.1291 94.3342 2.08469 93.0722 2.89445ZM50.7093 7.58399H47.8405L46.2188 10.204H49.0875L50.7093 7.58399ZM37.1258 16.6568C38.3464 14.9837 41.7143 9.12022 41.7143 9.12022C41.7001 9.00822 41.6478 8.9045 41.5663 8.82638C41.4848 8.74827 41.379 8.7005 41.2665 8.69107C40.8 8.6693 40.0225 8.82635 38.4785 10.7591C36.9345 12.6918 35.7357 14.2296 34.8619 15.8296C33.9041 17.5757 33.4858 18.8072 34.0362 19.1415C34.2148 19.231 34.42 19.252 34.6131 19.2006C34.9707 19.1104 35.4387 18.7512 36.0809 18.0126C36.3826 17.6674 36.7246 17.2025 37.1258 16.6568ZM21.7324 8.72683C20.9394 8.1282 18.9227 9.52916 18.9118 10.9597C18.8994 12.429 20.7264 12.8784 20.9627 12.8893C21.0323 12.895 21.1019 12.8805 21.1633 12.8473C21.2055 12.8227 21.2391 12.7858 21.2597 12.7416C21.4745 12.3194 21.6676 11.8866 21.8381 11.4448C22.1165 10.7171 22.4694 9.28815 21.7324 8.72683ZM20.5367 13.7849C19.9899 13.6141 19.4673 13.3737 18.9818 13.0696C18.5113 12.7629 18.1287 12.3391 17.8716 11.8397C17.8436 11.7931 17.8125 11.8288 17.7845 11.8708C17.7566 11.9128 17.5948 12.1149 16.5158 13.6978C15.4367 15.2807 13.8382 18.518 15.3356 19.0746C16.2903 19.4369 17.9027 17.7452 18.7781 16.6381C19.4332 15.7681 20.0385 14.8617 20.5911 13.9233C20.6269 13.8284 20.5911 13.8067 20.5382 13.7895M43.9673 14.7598H45.0184C45.0184 14.7598 39.752 22.3787 36.7775 22.0242C35.1169 21.8299 35.6098 19.7805 35.6098 19.7805C35.6098 19.7805 33.2774 22.5109 31.1348 21.9574C29.1912 21.4583 30.446 18.2256 30.446 18.2256C30.2252 18.3143 26.0192 23.0551 23.0634 21.9185C19.9707 20.7243 21.5769 16.7547 22.1647 15.5606C22.6638 14.5546 23.2158 13.575 23.2158 13.575C23.2158 13.575 22.7415 13.7087 22.4383 13.7771C22.1351 13.8455 21.6966 13.9326 21.6966 13.9326C21.6966 13.9326 20.2335 16.31 19.3394 17.4964C18.4454 18.6828 14.6452 22.7597 12.4062 21.948C10.1671 21.1364 10.7222 18.0033 11.9801 15.5155C14.0202 11.4805 18.8605 6.522 21.7759 7.27457C24.7209 8.02558 22.2828 12.8022 22.2828 12.8022C22.2828 12.8022 22.869 12.8784 24.2731 11.9206C26.2944 10.5414 28.9626 6.83143 31.8516 7.2668C33.2137 7.47204 34.4825 8.86366 32.7472 11.507C32.1937 12.3559 31.2654 13.1147 30.5548 12.3637C30.1117 11.8972 30.4989 11.0467 30.9638 10.4652C31.1447 10.2281 31.3812 10.0392 31.6523 9.91502C31.9235 9.79084 32.221 9.73522 32.5187 9.75306C32.5187 9.75306 32.996 8.66464 31.7816 8.68019C30.799 8.69885 28.3111 10.9892 26.9071 13.3029C25.6196 15.4268 23.6682 19.0451 25.6274 19.8334C27.4233 20.558 30.8409 16.5013 32.4238 14.3757C34.0067 12.2502 37.614 7.43317 40.6398 7.24036C41.6816 7.17195 42.302 8.12198 42.302 8.12198L42.6519 7.56844H45.6777C45.6777 7.56844 39.979 17.0781 39.5343 17.798C39.1845 18.3609 38.7196 19.6266 40.0008 18.9176C41.282 18.2085 43.9673 14.7598 43.9673 14.7598ZM42.3207 29.9977C40.0928 28.4555 37.425 27.677 34.7173 27.7789C33.9844 27.7989 33.2665 27.9913 32.622 28.3406C31.9774 28.6899 31.4242 29.1863 31.0073 29.7893C29.8536 27.7758 27.5726 26.5396 24.0461 26.5676C18.3474 26.6329 12.6954 29.2607 8.21732 29.2576C3.92583 29.2576 0.795843 26.5598 0.89691 21.7692C1.08505 13.362 8.18933 5.79121 13.4915 2.38445C16.5484 0.426845 19.1046 -0.154683 20.7761 0.0334585C21.9952 0.168734 23.4614 1.57746 22.5363 3.65324C21.1773 6.68682 19.3006 6.43804 19.3705 4.98733C19.4094 4.04351 20.0376 3.44955 20.5103 3.12146C20.8104 2.91466 21.3406 2.85558 21.6173 2.84936C21.8863 2.62235 22.0838 0.961726 19.907 1.50749C17.7301 2.05326 15.0868 4.199 12.5772 6.97137C10.0676 9.74373 6.1602 14.9837 5.19462 20.4864C4.7437 23.038 5.03913 27.6918 11.0892 27.6389C16.2203 27.5969 23.7833 24.2182 30.7336 24.2881C33.4314 24.3146 35.7793 25.0423 37.6094 26.1711C39.4068 27.2782 41.5619 28.8953 42.3269 29.9992" fill="#E61D2B"/>
  </g>
  <defs>
    <clipPath id="clip0_64_1275">
      <rect width="95.638" height="30" fill="white" transform="translate(0.894531)"/>
    </clipPath>
  </defs>
</svg>