<svg xmlns="http://www.w3.org/2000/svg" width="85" height="46" viewBox="0 0 85 46" fill="none">
  <g clip-path="url(#clip0_64_1261)">
    <path d="M60.0477 29.7726C58.8753 30.0413 55.7896 30.1959 55.7896 30.1959L55.3988 31.4172C55.3988 31.4172 56.9376 31.2869 58.0611 31.4009C58.0611 31.4009 58.4275 31.3602 58.4682 31.8161C58.4845 32.2395 58.4357 32.6954 58.4357 32.6954C58.4357 32.6954 58.4112 32.9722 58.0204 33.0374C57.5971 33.1106 54.6987 33.2165 54.6987 33.2165L54.2264 34.8041C54.2264 34.8041 54.0555 35.1705 54.4463 35.0646C54.8126 34.9669 57.8495 34.397 58.2484 34.4784C58.6718 34.5843 59.144 35.146 59.0056 35.6671C58.8427 36.3021 55.8141 38.2398 53.9659 38.1014C53.9659 38.1014 52.9971 38.1666 52.1748 36.8558C51.4095 35.6101 52.4679 33.2409 52.4679 33.2409C52.4679 33.2409 51.9875 32.1336 52.3376 31.7673C52.3376 31.7673 52.5493 31.58 53.1518 31.5312L53.8926 29.9924C53.8926 29.9924 53.0459 30.0494 52.5411 29.4306C52.0689 28.8363 52.0364 28.5676 52.3946 28.4048C52.7772 28.2175 56.3026 27.5744 58.7287 27.6558C58.7287 27.6558 59.5755 27.5744 60.3001 29.0398C60.2919 29.0398 60.6502 29.6342 60.0477 29.7726ZM50.921 35.6834C50.6116 36.4161 49.7893 37.1977 48.7716 36.7092C47.762 36.2207 46.1581 32.9397 46.1581 32.9397C46.1581 32.9397 45.5475 31.7184 45.4335 31.7428C45.4335 31.7428 45.3033 31.5067 45.2218 32.842C45.1404 34.1772 45.2381 36.7744 44.7089 37.1814C44.2041 37.5885 43.5935 37.4257 43.276 36.9453C42.991 36.4731 42.8689 35.3496 43.0236 33.3793C43.2109 31.409 43.6668 29.3085 44.253 28.649C44.8392 27.9977 45.3114 28.4699 45.4905 28.6409C45.4905 28.6409 46.2721 29.3492 47.5666 31.4335L47.7946 31.8161C47.7946 31.8161 48.967 33.7864 49.0891 33.7782C49.0891 33.7782 49.1868 33.8678 49.2682 33.8027C49.3903 33.7701 49.3415 33.1351 49.3415 33.1351C49.3415 33.1351 49.0972 30.9938 48.0307 27.3627C48.0307 27.3627 47.8679 26.9067 47.9818 26.4834C48.0877 26.0519 48.5192 26.2554 48.5192 26.2554C48.5192 26.2554 50.1801 27.0859 50.978 29.7889C51.7677 32.5163 51.2303 34.9506 50.921 35.6834ZM42.7631 28.7386C42.6247 29.0154 42.5433 29.4144 41.8431 29.5202C41.8431 29.5202 35.1425 29.9761 34.825 30.4483C34.825 30.4483 34.5889 30.7251 34.9553 30.8066C35.3217 30.8798 36.836 31.0834 37.5687 31.1241C38.3503 31.1322 40.9882 31.1567 41.9326 32.3372C41.9326 32.3372 42.4944 32.899 42.47 34.169C42.4456 35.4717 42.2176 35.9276 41.7128 36.3998C41.1836 36.8395 36.6406 38.8749 33.7096 35.7485C33.7096 35.7485 32.3581 34.2423 34.1737 33.1025C34.1737 33.1025 35.4845 32.3128 38.8144 33.2409C38.8144 33.2409 39.824 33.6073 39.7751 33.9736C39.7181 34.3644 38.9447 34.7797 37.8211 34.7552C36.7302 34.7227 35.9323 34.2016 36.087 34.283C36.2335 34.34 34.9146 33.648 34.5075 34.1202C34.1004 34.5517 34.1981 34.8204 34.5971 35.089C35.6148 35.6671 39.5472 35.4636 40.7195 34.1609C40.7195 34.1609 41.1836 33.6317 40.4753 33.2002C39.767 32.7931 37.7397 32.5489 36.95 32.5082C36.1928 32.4675 33.3758 32.5163 32.9687 31.7673C32.9687 31.7673 32.5617 31.2625 33.0095 29.8296C33.4817 28.3315 36.7627 27.7535 38.1794 27.6232C38.1794 27.6232 42.0792 27.4848 42.7957 28.2827C42.7875 28.2827 42.8852 28.4699 42.7631 28.7386ZM31.6905 37.5234C31.2183 37.8735 30.2169 37.7188 29.9319 37.328C29.647 36.9779 29.5493 35.5857 29.6063 33.4037C29.6633 31.1974 29.7121 28.4618 30.1843 28.0303C30.6891 27.5906 30.9985 27.9733 31.1939 28.2745C31.4056 28.5676 31.6579 28.8933 31.7149 29.5853C31.7638 30.2774 31.9266 33.9085 31.9266 33.9085C31.9266 33.9085 32.1383 37.1814 31.6905 37.5234ZM32.7082 25.8158C31.3323 26.2717 30.3879 26.117 29.59 25.7751C29.2399 26.3857 29.0364 26.5729 28.7677 26.6136C28.3769 26.6544 28.0268 26.0275 27.9617 25.8239C27.8965 25.6692 27.7093 25.4087 27.9372 24.7899C27.1556 24.0898 27.0987 23.1453 27.2289 22.5103C27.4243 21.7775 28.7433 18.9931 32.7571 18.6675C32.7571 18.6675 34.7192 18.5209 35.053 19.5712H35.11C35.11 19.5712 37.0151 19.5793 36.9744 21.2728C36.95 22.9744 34.8576 25.0912 32.7082 25.8158ZM28.9631 22.0462C28.556 22.6975 28.5397 23.0883 28.727 23.357C29.191 22.6487 30.0378 21.5333 31.2834 20.6866C30.3227 20.768 29.5167 21.1832 28.9631 22.0462ZM34.5075 20.9552C33.2456 21.1425 31.2916 22.8359 30.3634 24.22C31.7882 24.4805 34.304 24.3829 35.4194 22.1113C35.4112 22.1113 35.9486 20.7028 34.5075 20.9552ZM68.7673 34.0713C68.0102 35.3903 65.8852 38.1421 63.0519 37.499C62.1157 39.7705 61.3341 42.0582 60.8863 45.494C60.8863 45.494 60.7886 46.1616 60.2349 45.9255C59.6895 45.7301 58.7776 44.8182 58.5985 43.5563C58.4031 41.8954 59.144 39.0866 60.6502 35.8706C60.2105 35.1542 59.9093 34.1283 60.1698 32.671C60.1698 32.671 60.5525 29.968 63.2636 27.5255C63.2636 27.5255 63.5893 27.2405 63.7765 27.3301C63.9882 27.4197 63.8905 28.299 63.7196 28.7223C63.5486 29.1457 62.3355 31.2462 62.3355 31.2462C62.3355 31.2462 61.5783 32.6628 61.79 33.7782C63.2148 31.5882 66.4551 27.1673 68.4661 28.5595C69.1419 29.0398 69.4512 30.0901 69.4512 31.2218C69.4431 32.2232 69.207 33.2816 68.7673 34.0713ZM68.1811 30.603C68.1811 30.603 68.0672 29.7319 67.2204 30.6926C66.4877 31.4986 65.1687 33.0211 64.1022 35.0809C65.2176 34.9588 66.2923 34.3482 66.618 34.0388C67.1472 33.5666 68.3765 32.2965 68.1811 30.603ZM28.6537 31.7103C28.499 33.6805 27.7418 36.9942 22.3765 38.6306C18.8349 39.6972 15.4887 39.1843 13.665 38.7202C13.6243 39.4448 13.5429 39.7542 13.4289 39.8763C13.2742 40.031 12.1181 40.6986 11.4831 39.7542C11.1981 39.3064 11.0516 38.4922 10.9702 37.7676C6.86679 35.8788 4.97794 33.1595 4.90466 33.0374C4.81511 32.9478 3.87882 31.9708 4.81511 30.774C5.6944 29.6912 8.56838 28.6083 11.1574 28.1687C11.247 25.9542 11.5075 24.2851 11.8169 23.5198C12.1914 22.6324 12.6636 23.4303 13.0707 24.0328C13.4126 24.4805 13.6162 26.4101 13.6325 27.9489C15.3259 27.8674 16.3273 27.9896 18.2162 28.3315C20.6749 28.7793 22.3195 30.0331 22.173 31.4579C22.0671 32.8582 20.7808 33.4363 20.2923 33.477C19.7794 33.5177 18.9815 33.1513 18.9815 33.1513C18.436 32.8908 18.9408 32.6629 19.6002 32.3779C20.3167 32.0278 20.1539 31.6696 20.1539 31.6696C19.8852 30.888 16.6937 30.3425 13.5185 30.3425C13.5022 32.0929 13.5917 34.9995 13.6325 36.6929C15.8551 37.1163 17.516 37.0349 17.516 37.0349C17.516 37.0349 25.625 36.8069 25.8693 31.6289C26.1217 26.4427 17.7847 21.4682 11.6215 19.8887C5.46644 18.2767 1.98183 19.4002 1.68059 19.5549C1.35493 19.7177 1.65617 19.7666 1.65617 19.7666C1.65617 19.7666 1.98997 19.8154 2.56803 20.0108C3.17865 20.2062 2.70643 20.5237 2.70643 20.5237C1.65617 20.8575 0.475637 20.6459 0.247673 20.1655C0.019708 19.6852 0.402363 19.2536 0.842009 18.6349C1.28166 17.9836 1.76201 18.008 1.76201 18.008C9.3744 15.3701 18.6477 20.1411 18.6477 20.1411C27.3348 24.5457 28.8165 29.7075 28.6537 31.7103ZM5.67812 31.4416C4.81511 31.865 5.40944 32.4756 5.40944 32.4756C7.02962 34.2179 9.02431 35.3089 10.9213 35.9846C11.1411 32.9804 11.1086 31.922 11.133 30.4076C8.16944 30.6112 6.45971 31.0834 5.67812 31.4416Z" fill="#01147C"/>
    <path d="M84.8901 30.8223V31.897C84.8901 32.1331 84.7029 32.3203 84.4667 32.3203H79.3457C79.3457 32.589 79.3538 32.8251 79.3538 33.0449C79.3538 34.6326 79.2887 35.9271 79.134 37.3844C79.1096 37.6042 78.9305 37.7671 78.7188 37.7671H77.6115C77.4975 37.7671 77.3917 37.7182 77.3184 37.6368C77.2452 37.5554 77.2045 37.4414 77.2207 37.3274C77.3754 35.8782 77.4487 34.6 77.4487 33.0449C77.4487 32.817 77.4487 32.5809 77.4406 32.3203H72.3765C72.1404 32.3203 71.9531 32.1331 71.9531 31.897V30.8223C71.9531 30.5862 72.1404 30.3989 72.3765 30.3989H77.3673C77.2614 28.6485 77.0498 26.9632 76.7078 25.2534C76.6915 25.1476 76.716 25.0418 76.7811 24.9603C76.8462 24.8789 76.9439 24.8301 77.0498 24.8301H78.2466C78.4338 24.8301 78.5885 24.9603 78.6292 25.1476C78.963 26.9143 79.1747 28.6322 79.2806 30.3989H84.4667C84.6947 30.3989 84.8901 30.5943 84.8901 30.8223Z" fill="#01147C"/>
    <path d="M77.9156 22.2988C75.2696 15.7937 70.7999 10.2493 64.9868 6.2599C59.0353 2.18096 52.0579 0.0234375 44.8119 0.0234375C32.8275 0.0234375 21.7061 5.97494 15.0707 15.9484C14.9974 16.0542 14.9811 16.1926 15.0218 16.3148C15.0625 16.445 15.1602 16.5346 15.2823 16.5753L16.2105 16.8928C16.2675 16.9091 16.3245 16.9172 16.3733 16.9172C16.5443 16.9172 16.7071 16.8277 16.8048 16.6893C19.8498 12.2114 23.9694 8.49069 28.7241 5.91795C33.6335 3.26379 39.1942 1.8553 44.8038 1.8553C51.5857 1.8553 58.1234 3.85813 63.7248 7.63583C69.1878 11.324 73.4296 16.4776 75.9942 22.5268C76.0675 22.7059 76.2466 22.828 76.442 22.828H77.5493C77.6795 22.828 77.8016 22.7629 77.8668 22.6571C77.9482 22.5512 77.9645 22.421 77.9156 22.2988ZM16.3733 16.6404H16.3896C16.3896 16.6404 16.3815 16.6404 16.3733 16.6404ZM76.214 22.6815C76.2385 22.6978 76.2629 22.7141 76.2873 22.7222C76.2629 22.7059 76.2385 22.6978 76.214 22.6815Z" fill="url(#paint0_radial_64_1261)"/>
  </g>
  <defs>
    <radialGradient id="paint0_radial_64_1261" cx="0" cy="0" r="1" gradientUnits="userSpaceOnUse" gradientTransform="translate(76.8755 22.787) scale(61.8862 61.8862)">
      <stop offset="0.007" stop-color="#021192"/>
      <stop offset="0.03" stop-color="#021096"/>
      <stop offset="0.057" stop-color="#010CB4"/>
      <stop offset="0.084" stop-color="#0008CE"/>
      <stop offset="0.111" stop-color="#0006D7"/>
      <stop offset="0.138" stop-color="#0004E1"/>
      <stop offset="0.165" stop-color="#0001FA"/>
      <stop offset="0.191" stop-color="#0000FE"/>
      <stop offset="0.216" stop-color="#0F1EFF"/>
      <stop offset="1" stop-color="#00FFFF" stop-opacity="0"/>
    </radialGradient>
    <clipPath id="clip0_64_1261">
      <rect width="84.754" height="46" fill="white" transform="translate(0.140625)"/>
    </clipPath>
  </defs>
</svg>