<svg xmlns="http://www.w3.org/2000/svg" width="105" height="35" viewBox="0 0 105 35" fill="none">
  <g clip-path="url(#clip0_64_1254)">
    <path d="M44.6969 17.9498C44.6969 22.8079 40.8964 26.3878 36.2323 26.3878C31.5681 26.3878 27.7676 22.8079 27.7676 17.9498C27.7676 13.0574 31.5681 9.51172 36.2323 9.51172C40.8964 9.51172 44.6969 13.0574 44.6969 17.9498ZM40.9915 17.9498C40.9915 14.9139 38.7888 12.8367 36.2323 12.8367C33.6757 12.8367 31.473 14.9139 31.473 17.9498C31.473 20.9552 33.6757 23.0628 36.2323 23.0628C38.7888 23.0628 40.9915 20.9514 40.9915 17.9498Z" fill="#EA4335"/>
    <path d="M62.9586 17.9498C62.9586 22.8079 59.1581 26.3878 54.494 26.3878C49.8298 26.3878 46.0293 22.8079 46.0293 17.9498C46.0293 13.0612 49.8298 9.51172 54.494 9.51172C59.1581 9.51172 62.9586 13.0574 62.9586 17.9498ZM59.2532 17.9498C59.2532 14.9139 57.0505 12.8367 54.494 12.8367C51.9374 12.8367 49.7347 14.9139 49.7347 17.9498C49.7347 20.9552 51.9374 23.0628 54.494 23.0628C57.0505 23.0628 59.2532 20.9514 59.2532 17.9498Z" fill="#FBBC05"/>
    <path d="M80.4593 10.0215V25.1704C80.4593 31.4019 76.7843 33.947 72.4397 33.947C68.3501 33.947 65.8886 31.2117 64.9604 28.9748L68.1865 27.6318C68.7609 29.0052 70.1685 30.6259 72.4359 30.6259C75.2169 30.6259 76.9403 28.9101 76.9403 25.6802V24.4666H76.8109C75.9816 25.49 74.3837 26.384 72.3674 26.384C68.1484 26.384 64.2832 22.709 64.2832 17.9802C64.2832 13.2172 68.1484 9.51172 72.3674 9.51172C74.3799 9.51172 75.9778 10.4057 76.8109 11.3987H76.9403V10.0253H80.4593V10.0215ZM77.2028 17.9802C77.2028 15.009 75.2207 12.8367 72.6984 12.8367C70.1419 12.8367 68.0001 15.009 68.0001 17.9802C68.0001 20.921 70.1419 23.0628 72.6984 23.0628C75.2207 23.0628 77.2028 20.921 77.2028 17.9802Z" fill="#4285F4"/>
    <path d="M86.2606 1.14062V25.8689H82.6465V1.14062H86.2606Z" fill="#34A853"/>
    <path d="M100.342 20.7268L103.218 22.6442C102.29 24.0176 100.053 26.3839 96.1878 26.3839C91.3943 26.3839 87.8145 22.6785 87.8145 17.9459C87.8145 12.9279 91.4248 9.50781 95.7732 9.50781C100.152 9.50781 102.294 12.9926 102.994 14.8757L103.378 15.8344L92.0982 20.5062C92.9617 22.1991 94.3047 23.0627 96.1878 23.0627C98.0748 23.0627 99.3835 22.1344 100.342 20.7268ZM91.4895 17.691L99.0297 14.56C98.615 13.5062 97.3672 12.7719 95.8987 12.7719C94.0155 12.7719 91.3943 14.4344 91.4895 17.691Z" fill="#EA4335"/>
    <path d="M14.0874 15.7547V12.1748H26.151C26.2689 12.7987 26.3298 13.5368 26.3298 14.3357C26.3298 17.0215 25.5956 20.3427 23.2293 22.709C20.9276 25.1058 17.9869 26.384 14.0912 26.384C6.87057 26.384 0.798828 20.5025 0.798828 13.2819C0.798828 6.06121 6.87057 0.179688 14.0912 0.179688C18.0858 0.179688 20.9314 1.74708 23.0695 3.79001L20.5434 6.3161C19.0102 4.87806 16.9331 3.75958 14.0874 3.75958C8.81459 3.75958 4.69068 8.00903 4.69068 13.2819C4.69068 18.5547 8.81459 22.8041 14.0874 22.8041C17.5075 22.8041 19.4554 21.4308 20.7032 20.1829C21.7151 19.171 22.3809 17.7253 22.6434 15.7509L14.0874 15.7547Z" fill="#4285F4"/>
  </g>
  <defs>
    <clipPath id="clip0_64_1254">
      <rect width="103.478" height="35" fill="white" transform="translate(0.662109)"/>
    </clipPath>
  </defs>
</svg>