<svg xmlns="http://www.w3.org/2000/svg" width="100" height="66" viewBox="0 0 100 66" fill="none">
  <path d="M38.9668 15.7051H60.1438V50.2933H38.9668V15.7051Z" fill="#FF5F00"/>
  <path d="M41.1448 33.0005C41.1422 29.6699 41.8972 26.3824 43.3527 23.3868C44.8082 20.3911 46.9261 17.7658 49.546 15.7094C46.3011 13.1593 42.4042 11.5735 38.3007 11.1333C34.1972 10.6931 30.0526 11.4163 26.3406 13.2202C22.6287 15.0241 19.4991 17.8359 17.3096 21.3342C15.1201 24.8326 13.959 28.8764 13.959 33.0035C13.959 37.1305 15.1201 41.1744 17.3096 44.6727C19.4991 48.1711 22.6287 50.9829 26.3406 52.7868C30.0526 54.5907 34.1972 55.3139 38.3007 54.8737C42.4042 54.4335 46.3011 52.8477 49.546 50.2976C46.9252 48.2406 44.8069 45.6143 43.3514 42.6175C41.8958 39.6207 41.1413 36.3319 41.1448 33.0004V33.0005Z" fill="#EB001B"/>
  <path d="M83.0328 46.6327V45.924H83.3383V45.7773H82.6113V45.924H82.8985V46.6328L83.0328 46.6327ZM84.4443 46.6327V45.7775H84.2243L83.9677 46.3884L83.711 45.7773H83.4911V46.6327H83.65V45.9851L83.8883 46.5412H84.0532L84.2916 45.9851V46.6327H84.4443Z" fill="#F79E1B"/>
  <path d="M85.1391 33.0014C85.139 37.1288 83.9777 41.1728 81.7878 44.6713C79.5979 48.1698 76.4678 50.9816 72.7554 52.7852C69.0429 54.5888 64.8979 55.3115 60.7942 54.8707C56.6904 54.4299 52.7935 52.8433 49.5488 50.2923C52.1677 48.2342 54.2849 45.6081 55.7408 42.6123C57.1967 39.6165 57.9532 36.3291 57.9532 32.9983C57.9532 29.6674 57.1967 26.3801 55.7408 23.3842C54.2849 20.3884 52.1677 17.7624 49.5488 15.7042C52.7935 13.1532 56.6904 11.5667 60.7942 11.1258C64.898 10.685 69.043 11.4077 72.7554 13.2113C76.4678 15.015 79.5979 17.8268 81.7878 21.3253C83.9777 24.8238 85.1391 28.8679 85.1391 32.9953V33.0014Z" fill="#F79E1B"/>
</svg>