<svg xmlns="http://www.w3.org/2000/svg" width="20" height="21" viewBox="0 0 20 21" fill="none">
  <path fill-rule="evenodd" clip-rule="evenodd" d="M8.67001 19.1702C3.88764 19.1702 0 15.2825 0 10.5001C0 5.71776 3.88764 1.83008 8.67001 1.83008C11.0775 1.83008 13.3223 2.78982 14.9815 4.54658C15.0654 4.64116 15.0561 4.74709 15.0024 4.82409L15.5113 5.4892C15.6083 5.43979 15.7344 5.44998 15.8111 5.57132C16.8196 7.01905 17.3402 8.72704 17.3402 10.5001C17.3401 15.2825 13.4524 19.1702 8.67001 19.1702ZM8.67001 17.3809C4.87991 17.3809 1.78928 14.2902 1.78928 10.5001C1.78928 6.71003 4.87991 3.61936 8.67001 3.61936C10.4756 3.61936 12.1836 4.3188 13.4687 5.57137C13.572 5.67333 13.5559 5.795 13.4886 5.87684L14.1329 6.67635C14.2311 6.61886 14.367 6.6244 14.4446 6.74256C17.3689 11.1927 14.1953 17.3809 8.67001 17.3809Z" fill="#DEE3FF"/>
  <path fill-rule="evenodd" clip-rule="evenodd" d="M8.89816 14.9575C8.80058 14.9575 8.71924 14.8925 8.68672 14.8111C8.67048 14.7786 7.27151 11.1674 5.10806 9.80101C4.68512 9.54075 4.35985 9.2642 4.48996 8.64606C4.62007 8.04421 5.02676 7.70261 5.75873 7.53993C7.06002 7.26338 8.45894 9.28045 8.9795 10.1101C10.8013 7.45864 14.445 3.29436 19.7479 2.80637C20.0037 2.77638 20.0983 3.15558 19.8618 3.26183C19.7804 3.29436 12.2002 6.7592 9.12585 14.8274C9.07708 14.9087 8.99574 14.9575 8.89816 14.9575Z" fill="#00B42C"/>
</svg>