<svg width="22" height="23" viewBox="0 0 22 23" fill="none" xmlns="http://www.w3.org/2000/svg">
<path fill-rule="evenodd" clip-rule="evenodd" d="M9.53896 21.039C4.27836 21.039 0.00195312 16.7625 0.00195312 11.5019C0.00195312 6.2413 4.27836 1.96484 9.53896 1.96484C12.1872 1.96484 14.6565 3.02056 16.4816 4.95299C16.5739 5.05703 16.5637 5.17355 16.5046 5.25826L17.0644 5.98988C17.1711 5.93552 17.3098 5.94674 17.3942 6.08021C18.5036 7.67272 19.0762 9.55151 19.0762 11.5019C19.0761 16.7625 14.7996 21.039 9.53896 21.039ZM9.53896 19.0708C5.36985 19.0708 1.97016 15.671 1.97016 11.5019C1.97016 7.33279 5.36985 3.93306 9.53896 3.93306C11.5251 3.93306 13.4039 4.70244 14.8175 6.08026C14.9311 6.19242 14.9134 6.32625 14.8395 6.41628L15.5481 7.29574C15.6562 7.23251 15.8056 7.2386 15.891 7.36857C19.1078 12.2637 15.6168 19.0708 9.53896 19.0708Z" fill="#6F86FF"/>
<path fill-rule="evenodd" clip-rule="evenodd" d="M9.78915 16.4033C9.68181 16.4033 9.59234 16.3317 9.55656 16.2422C9.53869 16.2064 7.99983 12.2341 5.62003 10.7311C5.1548 10.4448 4.79701 10.1406 4.94013 9.46067C5.08324 8.79863 5.53061 8.42287 6.33577 8.24392C7.76719 7.93972 9.306 10.1585 9.87862 11.0711C11.8826 8.1545 15.8907 3.5738 21.7239 3.03701C22.0053 3.00402 22.1093 3.42114 21.8491 3.53802C21.7597 3.5738 13.4214 7.38512 10.0396 16.2601C9.98596 16.3496 9.89649 16.4033 9.78915 16.4033Z" fill="#00B42C"/>
</svg>
