<svg xmlns="http://www.w3.org/2000/svg" width="88" height="28" viewBox="0 0 88 28" fill="none">
  <g clip-path="url(#clip0_64_1279)">
    <path d="M38.026 27.5969H31.0176L35.4012 0.492188H42.4092L38.026 27.5969Z" fill="#00579F"/>
    <path d="M63.4316 1.15396C62.0492 0.605531 59.8567 0 57.1456 0C50.2245 0 45.3508 3.69067 45.3209 8.96721C45.2634 12.8602 48.8103 15.0225 51.4632 16.3206C54.1746 17.647 55.0964 18.5127 55.0964 19.6951C55.0688 21.5109 52.9053 22.3479 50.8875 22.3479C48.0895 22.3479 46.5902 21.9164 44.3118 20.9061L43.3889 20.473L42.4082 26.5575C44.0519 27.3063 47.0804 27.9709 50.2245 28C57.5783 28 62.3658 24.3664 62.4225 18.7435C62.4505 15.6579 60.5775 13.2937 56.5397 11.3617C54.0884 10.1215 52.5872 9.2853 52.5872 8.01637C52.616 6.8628 53.8569 5.68125 56.624 5.68125C58.9024 5.62338 60.5764 6.17104 61.8446 6.71908L62.4785 7.0069L63.4316 1.15396Z" fill="#00579F"/>
    <path d="M72.7436 17.9947C73.3208 16.4376 75.5417 10.411 75.5417 10.411C75.5125 10.4689 76.1177 8.82512 76.4638 7.81603L76.9536 10.1515C76.9536 10.1515 78.2807 16.6395 78.5689 17.9947C77.4736 17.9947 74.1279 17.9947 72.7436 17.9947ZM81.3946 0.492188H75.9736C74.3019 0.492188 73.0318 0.981977 72.3105 2.74108L61.9004 27.5965H69.2541C69.2541 27.5965 70.4648 24.2512 70.725 23.5307C71.5318 23.5307 78.6854 23.5307 79.7233 23.5307C79.9245 24.4823 80.5595 27.5965 80.5595 27.5965H87.0487L81.3946 0.492188Z" fill="#00579F"/>
    <path d="M25.1606 0.492188L18.2971 18.975L17.547 15.2265C16.2781 10.9012 12.2985 6.2018 7.85742 3.86514L14.1442 27.5682H21.5554L32.5715 0.492188H25.1606Z" fill="#00579F"/>
    <path d="M11.9244 0.492188H0.64856L0.533203 1.03985C9.3291 3.28912 15.1544 8.71091 17.5478 15.2276L15.0966 2.77059C14.693 1.03946 13.4528 0.549291 11.9244 0.492188Z" fill="#FAA61A"/>
  </g>
  <defs>
    <clipPath id="clip0_64_1279">
      <rect width="86.5164" height="28" fill="white" transform="translate(0.533203)"/>
    </clipPath>
  </defs>
</svg>