<svg width="491" height="244" viewBox="0 0 491 244" fill="none" xmlns="http://www.w3.org/2000/svg">
<path d="M79.168 145.5C82.7578 145.5 85.668 148.41 85.668 152V178.556C85.6679 182.145 82.7578 185.056 79.168 185.056H50.0918C46.5021 185.056 43.5919 182.145 43.5918 178.556V152C43.5918 148.41 46.502 145.5 50.0918 145.5H79.168ZM69.04 1.10352C82.7009 1.10352 94.2053 3.3803 103.532 7.95898C112.846 12.5311 119.894 18.8072 124.653 26.793L125.108 27.5449C129.73 35.3436 132.036 44.173 132.036 54.0195C132.036 61.2851 130.938 67.484 128.724 72.6006C126.676 77.7207 123.352 82.3201 118.765 86.3975C114.193 90.4616 108.111 94.5977 100.531 98.8086C94.5354 102.475 90.3306 106.282 87.8682 110.216L87.5605 110.768C86.0584 113.591 85.0809 117.378 84.6543 122.157C84.3394 125.685 81.5101 128.607 77.9082 128.607H52.3604C48.7772 128.607 45.8278 125.696 45.9893 122.086C46.4686 111.366 48.2808 102.951 51.4609 96.8799L51.4629 96.876C55.3847 89.5438 61.8537 83.6821 70.8271 79.2783C77.0324 76.0919 81.6193 73.3375 84.6064 71.0146C87.755 68.5289 89.7828 65.994 90.748 63.4199C91.7299 60.8016 92.2275 57.6719 92.2275 54.0195C92.2275 47.9296 90.177 43.0278 86.0898 39.2676L86.082 39.2607L86.0742 39.2529C82.1635 35.3423 76.512 33.3516 69.04 33.3516C60.5657 33.3516 53.9833 35.6758 49.2275 40.2676C45.6299 43.7367 43.1161 48.5848 41.7148 54.8516C40.9766 58.1533 38.089 60.7059 34.6406 60.5293L7.21582 59.123C3.54044 58.9344 0.682163 55.704 1.34473 52.0225C2.87597 43.5144 5.89689 35.7718 10.4082 28.7998C16.004 20.1517 23.7179 13.373 33.5361 8.46387C43.3655 3.5492 55.2064 1.10352 69.04 1.10352Z" stroke="white"/>
<path d="M85.6674 177.865C85.1674 193.365 88.2674 224.565 108.667 225.365C123.667 225.365 141.767 223.765 140.167 183.365V49.8646C138.334 33.3646 144.667 1.06465 184.667 3.86465H443.667C458.834 2.19798 489.167 6.46465 489.167 36.8646V194.365C491.334 211.198 486.867 244.565 451.667 243.365L154.167 239.865" stroke="white"/>
<path d="M181.838 111.556L171.849 76.6466H179.912L185.69 100.902H185.98L192.355 76.6466H199.258L205.616 100.953H205.923L211.701 76.6466H219.764L209.775 111.556H202.582L195.934 88.7318H195.662L189.031 111.556H181.838ZM228.919 96.4193V111.556H221.658V76.6466H228.715V89.9932H229.021C229.612 88.4477 230.567 87.2375 231.885 86.3625C233.203 85.4761 234.857 85.0329 236.845 85.0329C238.663 85.0329 240.249 85.4307 241.601 86.2261C242.965 87.0102 244.021 88.1409 244.771 89.6182C245.533 91.0841 245.908 92.8398 245.896 94.8852V111.556H238.635V96.1807C238.646 94.567 238.237 93.3113 237.408 92.4136C236.59 91.5159 235.442 91.067 233.965 91.067C232.976 91.067 232.101 91.2773 231.34 91.6977C230.59 92.1182 229.999 92.7318 229.567 93.5386C229.146 94.3341 228.931 95.2943 228.919 96.4193ZM253.236 121.374C252.316 121.374 251.452 121.3 250.645 121.152C249.85 121.016 249.191 120.84 248.668 120.624L250.305 115.203C251.157 115.465 251.924 115.607 252.606 115.63C253.299 115.652 253.895 115.493 254.395 115.152C254.907 114.811 255.322 114.232 255.64 113.414L256.066 112.306L246.674 85.3738H254.31L259.731 104.601H260.003L265.475 85.3738H273.163L262.986 114.385C262.498 115.794 261.833 117.022 260.992 118.067C260.163 119.124 259.111 119.936 257.839 120.505C256.566 121.084 255.032 121.374 253.236 121.374ZM315.085 88.8682H307.619C307.483 87.9023 307.205 87.0443 306.784 86.2943C306.364 85.5329 305.824 84.8852 305.165 84.3511C304.506 83.817 303.744 83.4079 302.881 83.1238C302.028 82.8398 301.102 82.6977 300.102 82.6977C298.296 82.6977 296.722 83.1466 295.381 84.0443C294.04 84.9307 293 86.2261 292.261 87.9307C291.523 89.6238 291.153 91.6807 291.153 94.1011C291.153 96.5898 291.523 98.6807 292.261 100.374C293.011 102.067 294.057 103.345 295.398 104.209C296.739 105.073 298.29 105.505 300.051 105.505C301.04 105.505 301.955 105.374 302.796 105.112C303.648 104.851 304.403 104.47 305.063 103.97C305.722 103.459 306.267 102.84 306.699 102.112C307.142 101.385 307.449 100.556 307.619 99.6238L315.085 99.6579C314.892 101.26 314.409 102.806 313.636 104.294C312.875 105.772 311.847 107.095 310.551 108.266C309.267 109.425 307.733 110.345 305.949 111.027C304.176 111.698 302.171 112.033 299.932 112.033C296.818 112.033 294.034 111.328 291.58 109.919C289.136 108.51 287.205 106.47 285.784 103.8C284.375 101.13 283.671 97.8966 283.671 94.1011C283.671 90.2943 284.386 87.0557 285.818 84.3852C287.25 81.7148 289.193 79.6807 291.648 78.2829C294.102 76.8738 296.864 76.1693 299.932 76.1693C301.955 76.1693 303.83 76.4534 305.557 77.0216C307.296 77.5898 308.835 78.4193 310.176 79.5102C311.517 80.5898 312.608 81.9136 313.449 83.4818C314.301 85.05 314.847 86.8454 315.085 88.8682ZM325.583 96.4193V111.556H318.322V76.6466H325.378V89.9932H325.685C326.276 88.4477 327.231 87.2375 328.549 86.3625C329.867 85.4761 331.52 85.0329 333.509 85.0329C335.327 85.0329 336.912 85.4307 338.265 86.2261C339.628 87.0102 340.685 88.1409 341.435 89.6182C342.197 91.0841 342.572 92.8398 342.56 94.8852V111.556H335.299V96.1807C335.31 94.567 334.901 93.3113 334.072 92.4136C333.253 91.5159 332.106 91.067 330.628 91.067C329.64 91.067 328.765 91.2773 328.003 91.6977C327.253 92.1182 326.662 92.7318 326.231 93.5386C325.81 94.3341 325.594 95.2943 325.583 96.4193ZM358.184 112.067C355.537 112.067 353.247 111.505 351.315 110.38C349.394 109.243 347.912 107.664 346.866 105.641C345.821 103.607 345.298 101.249 345.298 98.567C345.298 95.8625 345.821 93.4988 346.866 91.4761C347.912 89.442 349.394 87.8625 351.315 86.7375C353.247 85.6011 355.537 85.0329 358.184 85.0329C360.832 85.0329 363.116 85.6011 365.037 86.7375C366.968 87.8625 368.457 89.442 369.502 91.4761C370.548 93.4988 371.071 95.8625 371.071 98.567C371.071 101.249 370.548 103.607 369.502 105.641C368.457 107.664 366.968 109.243 365.037 110.38C363.116 111.505 360.832 112.067 358.184 112.067ZM358.218 106.442C359.423 106.442 360.429 106.101 361.235 105.419C362.042 104.726 362.65 103.783 363.059 102.59C363.48 101.397 363.69 100.039 363.69 98.5159C363.69 96.9932 363.48 95.6352 363.059 94.442C362.65 93.2488 362.042 92.3057 361.235 91.6125C360.429 90.9193 359.423 90.5727 358.218 90.5727C357.002 90.5727 355.98 90.9193 355.15 91.6125C354.332 92.3057 353.713 93.2488 353.292 94.442C352.883 95.6352 352.679 96.9932 352.679 98.5159C352.679 100.039 352.883 101.397 353.292 102.59C353.713 103.783 354.332 104.726 355.15 105.419C355.98 106.101 357.002 106.442 358.218 106.442ZM385.702 112.067C383.054 112.067 380.764 111.505 378.832 110.38C376.912 109.243 375.429 107.664 374.384 105.641C373.338 103.607 372.815 101.249 372.815 98.567C372.815 95.8625 373.338 93.4988 374.384 91.4761C375.429 89.442 376.912 87.8625 378.832 86.7375C380.764 85.6011 383.054 85.0329 385.702 85.0329C388.349 85.0329 390.634 85.6011 392.554 86.7375C394.486 87.8625 395.974 89.442 397.02 91.4761C398.065 93.4988 398.588 95.8625 398.588 98.567C398.588 101.249 398.065 103.607 397.02 105.641C395.974 107.664 394.486 109.243 392.554 110.38C390.634 111.505 388.349 112.067 385.702 112.067ZM385.736 106.442C386.94 106.442 387.946 106.101 388.753 105.419C389.56 104.726 390.168 103.783 390.577 102.59C390.997 101.397 391.207 100.039 391.207 98.5159C391.207 96.9932 390.997 95.6352 390.577 94.442C390.168 93.2488 389.56 92.3057 388.753 91.6125C387.946 90.9193 386.94 90.5727 385.736 90.5727C384.52 90.5727 383.497 90.9193 382.668 91.6125C381.849 92.3057 381.23 93.2488 380.81 94.442C380.401 95.6352 380.196 96.9932 380.196 98.5159C380.196 100.039 380.401 101.397 380.81 102.59C381.23 103.783 381.849 104.726 382.668 105.419C383.497 106.101 384.52 106.442 385.736 106.442ZM423.174 92.8398L416.526 93.2488C416.412 92.6807 416.168 92.1693 415.793 91.7148C415.418 91.2488 414.924 90.8795 414.31 90.6068C413.708 90.3227 412.986 90.1807 412.145 90.1807C411.02 90.1807 410.072 90.4193 409.299 90.8966C408.526 91.3625 408.14 91.9875 408.14 92.7716C408.14 93.3966 408.39 93.925 408.89 94.3568C409.39 94.7886 410.248 95.1352 411.464 95.3966L416.202 96.3511C418.748 96.8738 420.645 97.7148 421.895 98.8738C423.145 100.033 423.77 101.556 423.77 103.442C423.77 105.158 423.265 106.664 422.253 107.959C421.253 109.255 419.878 110.266 418.128 110.993C416.39 111.709 414.384 112.067 412.111 112.067C408.645 112.067 405.884 111.345 403.827 109.902C401.782 108.448 400.583 106.47 400.231 103.97L407.373 103.595C407.589 104.652 408.111 105.459 408.941 106.016C409.77 106.561 410.833 106.834 412.128 106.834C413.401 106.834 414.424 106.59 415.197 106.101C415.981 105.601 416.378 104.959 416.39 104.175C416.378 103.516 416.1 102.976 415.554 102.556C415.009 102.124 414.168 101.794 413.032 101.567L408.498 100.664C405.941 100.152 404.037 99.2659 402.787 98.0045C401.549 96.7432 400.929 95.1352 400.929 93.1807C400.929 91.4988 401.384 90.05 402.293 88.8341C403.214 87.6182 404.503 86.6807 406.162 86.0216C407.833 85.3625 409.787 85.0329 412.026 85.0329C415.333 85.0329 417.935 85.7318 419.833 87.1295C421.742 88.5273 422.856 90.4307 423.174 92.8398ZM438.355 112.067C435.661 112.067 433.343 111.522 431.4 110.431C429.468 109.328 427.98 107.772 426.934 105.76C425.889 103.737 425.366 101.345 425.366 98.5841C425.366 95.8909 425.889 93.5273 426.934 91.4932C427.98 89.4591 429.451 87.8738 431.349 86.7375C433.258 85.6011 435.497 85.0329 438.065 85.0329C439.792 85.0329 441.4 85.3113 442.889 85.8682C444.389 86.4136 445.696 87.2375 446.809 88.3398C447.934 89.442 448.809 90.8284 449.434 92.4988C450.059 94.1579 450.372 96.1011 450.372 98.3284V100.323H428.264V95.8227H443.536C443.536 94.7773 443.309 93.8511 442.855 93.0443C442.4 92.2375 441.769 91.6068 440.963 91.1523C440.167 90.6863 439.241 90.4534 438.184 90.4534C437.082 90.4534 436.105 90.7091 435.252 91.2204C434.411 91.7204 433.752 92.3966 433.275 93.2488C432.798 94.0898 432.553 95.0273 432.542 96.0613V100.34C432.542 101.635 432.781 102.755 433.258 103.698C433.747 104.641 434.434 105.368 435.321 105.88C436.207 106.391 437.258 106.647 438.474 106.647C439.281 106.647 440.019 106.533 440.69 106.306C441.36 106.078 441.934 105.737 442.411 105.283C442.889 104.828 443.252 104.272 443.502 103.612L450.218 104.056C449.877 105.669 449.178 107.078 448.122 108.283C447.076 109.476 445.724 110.408 444.065 111.078C442.417 111.737 440.514 112.067 438.355 112.067Z" fill="white"/>
<path d="M224.342 152.101C224.342 155.908 223.621 159.147 222.178 161.817C220.746 164.487 218.791 166.527 216.314 167.936C213.848 169.334 211.075 170.033 207.996 170.033C204.894 170.033 202.11 169.328 199.644 167.919C197.178 166.51 195.229 164.47 193.797 161.8C192.365 159.13 191.649 155.897 191.649 152.101C191.649 148.294 192.365 145.056 193.797 142.385C195.229 139.715 197.178 137.681 199.644 136.283C202.11 134.874 204.894 134.169 207.996 134.169C211.075 134.169 213.848 134.874 216.314 136.283C218.791 137.681 220.746 139.715 222.178 142.385C223.621 145.056 224.342 148.294 224.342 152.101ZM216.86 152.101C216.86 149.635 216.49 147.556 215.752 145.862C215.024 144.169 213.996 142.885 212.666 142.01C211.337 141.135 209.78 140.698 207.996 140.698C206.212 140.698 204.655 141.135 203.325 142.01C201.996 142.885 200.962 144.169 200.223 145.862C199.496 147.556 199.132 149.635 199.132 152.101C199.132 154.567 199.496 156.647 200.223 158.34C200.962 160.033 201.996 161.317 203.325 162.192C204.655 163.067 206.212 163.505 207.996 163.505C209.78 163.505 211.337 163.067 212.666 162.192C213.996 161.317 215.024 160.033 215.752 158.34C216.49 156.647 216.86 154.567 216.86 152.101ZM227.89 169.556V134.647H241.663C244.299 134.647 246.549 135.118 248.413 136.061C250.288 136.993 251.714 138.317 252.691 140.033C253.68 141.737 254.174 143.743 254.174 146.05C254.174 148.368 253.674 150.362 252.674 152.033C251.674 153.692 250.225 154.965 248.327 155.851C246.441 156.737 244.157 157.181 241.475 157.181H232.253V151.249H240.282C241.691 151.249 242.861 151.056 243.793 150.669C244.725 150.283 245.418 149.703 245.873 148.931C246.339 148.158 246.572 147.198 246.572 146.05C246.572 144.891 246.339 143.914 245.873 143.118C245.418 142.323 244.719 141.72 243.776 141.311C242.844 140.891 241.668 140.681 240.248 140.681H235.27V169.556H227.89ZM246.742 153.669L255.418 169.556H247.27L238.782 153.669H246.742ZM263.487 169.556H255.578L267.629 134.647H277.14L289.174 169.556H281.265L272.521 142.624H272.248L263.487 169.556ZM262.993 155.834H281.674V161.595H262.993V155.834ZM299.316 140.732V134.647H327.986V140.732H317.299V169.556H310.003V140.732H299.316ZM338.786 170.067C336.093 170.067 333.775 169.522 331.832 168.431C329.9 167.328 328.411 165.772 327.366 163.76C326.321 161.737 325.798 159.345 325.798 156.584C325.798 153.891 326.321 151.527 327.366 149.493C328.411 147.459 329.883 145.874 331.781 144.737C333.69 143.601 335.929 143.033 338.497 143.033C340.224 143.033 341.832 143.311 343.321 143.868C344.821 144.414 346.127 145.237 347.241 146.34C348.366 147.442 349.241 148.828 349.866 150.499C350.491 152.158 350.804 154.101 350.804 156.328V158.323H328.696V153.823H343.968C343.968 152.777 343.741 151.851 343.286 151.044C342.832 150.237 342.201 149.607 341.394 149.152C340.599 148.686 339.673 148.453 338.616 148.453C337.514 148.453 336.536 148.709 335.684 149.22C334.843 149.72 334.184 150.397 333.707 151.249C333.23 152.09 332.985 153.027 332.974 154.061V158.34C332.974 159.635 333.213 160.755 333.69 161.698C334.179 162.641 334.866 163.368 335.752 163.88C336.639 164.391 337.69 164.647 338.906 164.647C339.713 164.647 340.451 164.533 341.122 164.306C341.792 164.078 342.366 163.737 342.843 163.283C343.321 162.828 343.684 162.272 343.934 161.612L350.65 162.056C350.309 163.669 349.61 165.078 348.554 166.283C347.508 167.476 346.156 168.408 344.497 169.078C342.849 169.737 340.946 170.067 338.786 170.067ZM365.452 170.067C362.77 170.067 360.463 169.499 358.531 168.362C356.611 167.215 355.134 165.624 354.099 163.59C353.077 161.556 352.565 159.215 352.565 156.567C352.565 153.885 353.082 151.533 354.117 149.51C355.162 147.476 356.645 145.891 358.565 144.755C360.486 143.607 362.77 143.033 365.418 143.033C367.702 143.033 369.702 143.448 371.418 144.277C373.134 145.107 374.492 146.272 375.492 147.772C376.492 149.272 377.043 151.033 377.145 153.056H370.293C370.099 151.749 369.588 150.698 368.759 149.902C367.94 149.095 366.867 148.692 365.537 148.692C364.412 148.692 363.429 148.999 362.588 149.612C361.759 150.215 361.111 151.095 360.645 152.255C360.179 153.414 359.946 154.817 359.946 156.465C359.946 158.135 360.173 159.556 360.628 160.726C361.094 161.897 361.747 162.789 362.588 163.402C363.429 164.016 364.412 164.323 365.537 164.323C366.367 164.323 367.111 164.152 367.77 163.811C368.44 163.47 368.992 162.976 369.423 162.328C369.867 161.669 370.156 160.88 370.293 159.959H377.145C377.031 161.959 376.486 163.72 375.509 165.243C374.543 166.755 373.207 167.936 371.503 168.789C369.798 169.641 367.781 170.067 365.452 170.067ZM387.135 154.419V169.556H379.874V134.647H386.931V147.993H387.238C387.829 146.448 388.783 145.237 390.101 144.362C391.42 143.476 393.073 143.033 395.062 143.033C396.88 143.033 398.465 143.431 399.817 144.226C401.181 145.01 402.238 146.141 402.988 147.618C403.749 149.084 404.124 150.84 404.113 152.885V169.556H396.851V154.181C396.863 152.567 396.454 151.311 395.624 150.414C394.806 149.516 393.658 149.067 392.181 149.067C391.192 149.067 390.317 149.277 389.556 149.698C388.806 150.118 388.215 150.732 387.783 151.539C387.363 152.334 387.147 153.294 387.135 154.419ZM414.146 159.09V158.51C414.157 156.522 414.333 154.936 414.674 153.755C415.027 152.573 415.538 151.618 416.208 150.891C416.879 150.164 417.686 149.505 418.629 148.914C419.333 148.459 419.964 147.987 420.521 147.499C421.078 147.01 421.521 146.47 421.85 145.88C422.18 145.277 422.345 144.607 422.345 143.868C422.345 143.084 422.157 142.397 421.782 141.806C421.407 141.215 420.902 140.76 420.265 140.442C419.64 140.124 418.947 139.965 418.186 139.965C417.447 139.965 416.748 140.13 416.089 140.459C415.43 140.777 414.89 141.255 414.47 141.891C414.049 142.516 413.822 143.294 413.788 144.226H406.833C406.89 141.953 407.436 140.078 408.47 138.601C409.504 137.112 410.873 136.005 412.578 135.277C414.282 134.539 416.163 134.169 418.22 134.169C420.481 134.169 422.481 134.544 424.22 135.294C425.958 136.033 427.322 137.107 428.311 138.516C429.299 139.925 429.794 141.624 429.794 143.612C429.794 144.942 429.572 146.124 429.129 147.158C428.697 148.181 428.089 149.09 427.305 149.885C426.521 150.669 425.595 151.38 424.527 152.016C423.629 152.55 422.89 153.107 422.311 153.686C421.742 154.266 421.316 154.936 421.032 155.698C420.759 156.459 420.617 157.397 420.606 158.51V159.09H414.146ZM417.521 169.999C416.384 169.999 415.413 169.601 414.606 168.806C413.811 167.999 413.419 167.033 413.43 165.908C413.419 164.794 413.811 163.84 414.606 163.044C415.413 162.249 416.384 161.851 417.521 161.851C418.6 161.851 419.549 162.249 420.367 163.044C421.186 163.84 421.6 164.794 421.612 165.908C421.6 166.658 421.402 167.345 421.015 167.97C420.64 168.584 420.146 169.078 419.532 169.453C418.919 169.817 418.248 169.999 417.521 169.999Z" fill="#2B4EFF"/>
</svg>
