<svg width="61" height="60" viewBox="0 0 61 60" fill="none" xmlns="http://www.w3.org/2000/svg">
<path d="M9.50002 22.5H51.5M9.50002 37.5H51.5M29.25 7.5C25.0384 14.249 22.8055 22.0447 22.8055 30C22.8055 37.9553 25.0384 45.751 29.25 52.5M31.75 7.5C35.9616 14.249 38.1945 22.0447 38.1945 30C38.1945 37.9553 35.9616 45.751 31.75 52.5M8 30C8 32.9547 8.58198 35.8806 9.71271 38.6104C10.8434 41.3402 12.5008 43.8206 14.5901 45.9099C16.6794 47.9992 19.1598 49.6566 21.8896 50.7873C24.6194 51.918 27.5453 52.5 30.5 52.5C33.4547 52.5 36.3806 51.918 39.1104 50.7873C41.8402 49.6566 44.3206 47.9992 46.4099 45.9099C48.4992 43.8206 50.1566 41.3402 51.2873 38.6104C52.418 35.8806 53 32.9547 53 30C53 24.0326 50.6295 18.3097 46.4099 14.0901C42.1903 9.87053 36.4674 7.5 30.5 7.5C24.5326 7.5 18.8097 9.87053 14.5901 14.0901C10.3705 18.3097 8 24.0326 8 30Z" stroke="white" stroke-width="2.5" stroke-linecap="round" stroke-linejoin="round"/>
</svg>
